<!DOCTYPE svg PUBLIC "-//W3C//DTD SVG 1.1//EN" "http://www.w3.org/Graphics/SVG/1.1/DTD/svg11.dtd">
<!-- Uploaded to: SVG Repo, www.svgrepo.com, Transformed by: SVG Repo Mixer Tools -->
<svg fill="#ffffff" height="800px" width="800px" version="1.1" id="Layer_1" xmlns="http://www.w3.org/2000/svg" xmlns:xlink="http://www.w3.org/1999/xlink" viewBox="0 0 512.001 512.001" xml:space="preserve">
<g id="SVGRepo_bgCarrier" stroke-width="0"/>
<g id="SVGRepo_tracerCarrier" stroke-linecap="round" stroke-linejoin="round"/>
<g id="SVGRepo_iconCarrier"> <g> <g> <path d="M509.19,425.015c-5.742-14.042-21.272-33.475-50.356-63.011c-3.14-3.19-8.271-3.228-11.459-0.089 c-3.19,3.14-3.228,8.271-0.089,11.459c26.788,27.204,42.13,46.101,46.902,57.774c3.233,7.908,1.199,10.435-3.329,14.964 l-16.809,16.809c-4.661,4.661-7.282,6.732-15.873,2.944c-12.511-5.518-32.963-22.572-62.526-52.134 c-33.787-33.787-44.049-50.012-53.972-65.701c-9.452-14.945-18.38-29.06-44.841-55.521l-5.926-5.927 c-3.165-3.165-8.296-3.164-11.461,0c-3.165,3.165-3.165,8.296,0,11.461l5.927,5.927c25.187,25.187,33.647,38.563,42.604,52.724 c10.396,16.438,21.147,33.435,56.209,68.497c31.866,31.867,52.667,48.984,67.444,55.503c5.383,2.375,10.005,3.366,14.055,3.366 c8.597,0,14.612-4.471,19.819-9.679l16.809-16.809C509.76,450.133,515.741,441.04,509.19,425.015z"/> </g> </g> <g> <g> <path d="M435.374,339.114c-23.654-21.928-37.423-30.638-50.739-39.062c-14.163-8.959-27.541-17.423-52.728-42.609l-90.748-90.748 c4.165-8.878,2.614-19.795-4.711-27.12l-13.121-13.121l4.441-4.441c4.819-4.82,7.038-11.253,6.709-17.577 c20.138-13.261,51.443-30.224,92.354-41.279c6.345-1.715,10.662-7.28,10.745-13.849c0.083-6.544-4.077-12.196-10.35-14.063 c-16.281-4.846-32.502-7.303-48.211-7.303c-32.659,0-60.821,10.537-83.807,31.334c-8.37-3.414-18.349-1.733-25.132,5.049 l-35.331,35.331c-3.165,3.165-3.165,8.296,0,11.459c3.165,3.165,8.296,3.165,11.459,0l35.331-35.331 c2.533-2.533,6.555-2.693,9.276-0.479c0.059,0.056,0.113,0.117,0.175,0.171l25.319,25.271c0.178,0.178,0.346,0.366,0.502,0.563 c0.013,0.016,0.024,0.034,0.037,0.051c0.46,0.588,0.824,1.251,1.082,1.984c0.011,0.03,0.026,0.059,0.038,0.09 c0.813,2.418,0.265,5.197-1.659,7.119l-77.818,77.818c-2.389,2.389-6.101,2.663-8.799,0.829c-0.053-0.041-0.103-0.086-0.157-0.126 c-0.364-0.266-0.644-0.496-0.851-0.702l-24.963-24.963c-0.025-0.025-0.046-0.053-0.07-0.079c-0.191-0.201-0.397-0.447-0.63-0.769 c-0.039-0.053-0.083-0.101-0.122-0.152c-1.841-2.698-1.569-6.416,0.822-8.807l19.565-19.565c3.165-3.165,3.165-8.296,0-11.459 c-3.165-3.165-8.296-3.165-11.459,0L92.259,142.14c-6.063,6.063-8.031,14.675-5.947,22.414 c-15.873,10.751-28.994,15.914-34.901,17.909c-2.979-1.66-6.34-2.555-9.844-2.555c-5.416,0-10.51,2.11-14.339,5.94L5.93,207.147 c-7.907,7.906-7.907,20.772,0,28.679l50.335,50.334c3.83,3.831,8.924,5.94,14.34,5.94s10.51-2.11,14.339-5.94l21.298-21.297 c3.83-3.83,5.94-8.922,5.94-14.34c0-3.509-0.899-6.876-2.564-9.858c1.972-5.886,7.088-18.92,17.915-34.887 c1.98,0.534,4.015,0.82,6.053,0.82c5.925,0,11.852-2.256,16.364-6.767l4.44-4.44l13.121,13.122 c4.524,4.523,10.538,7.014,16.934,7.014c3.587,0,7.042-0.809,10.194-2.296l61.891,61.891c3.165,3.165,8.296,3.165,11.459,0 c3.165-3.165,3.165-8.296,0-11.459l-60.881-60.88l23.608-23.608l89.729,89.728c26.461,26.461,40.578,35.391,55.524,44.846 c12.697,8.031,25.825,16.337,48.385,37.25c1.56,1.446,3.536,2.161,5.507,2.161c2.177,0,4.348-0.872,5.945-2.594 C438.849,347.283,438.656,342.156,435.374,339.114z M94.783,253.403l-21.298,21.298c-1.037,1.037-2.25,1.193-2.879,1.193 c-0.63,0-1.842-0.156-2.879-1.193l-50.334-50.334c-1.588-1.589-1.588-4.173-0.001-5.76l21.298-21.298 c1.037-1.037,2.25-1.193,2.879-1.193c0.63,0,1.842,0.156,2.879,1.193l25.615,25.615l24.72,24.72 c1.037,1.037,1.193,2.25,1.193,2.879S95.82,252.366,94.783,253.403z M97.363,227.303l-32.575-32.575 c7.755-3.236,18.461-8.51,30.598-16.735l18.713,18.713C105.872,208.841,100.599,219.549,97.363,227.303z M208.044,69.563 c19.586-16.874,43.42-25.416,70.972-25.416c14.518,0,27.811,2.449,37.725,5.003c-38.581,11.163-68.643,27.188-88.868,40.242 c-0.035-0.036-0.069-0.07-0.105-0.106L208.044,69.563z M224.989,161.985l-35.069,35.069c-1.463,1.462-3.407,2.268-5.475,2.268 c-2.068,0-4.012-0.806-5.475-2.268l-13.121-13.121l46.018-46.018l13.121,13.121C228.008,154.054,228.008,158.966,224.989,161.985z "/> </g> </g> </g>
</svg>